# xmcd
#
# Track frame offsets:
#	150
#	19925
#	34344
#	51120
#	67269
#	83873
#	105498
#	120073
#	138880
#	157735
#	172522
#	190297
#	208451
#	226818
#	244340
#	260853
#
# Disc length: 3679 seconds
#
# Revision: 1
# Processed by: cddbd v1.5.2PL0 Copyright (c) Steve Scherf et al.
# Submitted via: audiograbber 1.83.01
#
DISCID=d60e5d10
DTITLE=Various Artist - CB5080-03
DYEAR=2007
DGENRE=Country
TTITLE0=All My Friends Say - Luke Bryan
TTITLE1=It Just Comes Natural - George Strait
TTITLE2=As If - Sara Evans
TTITLE3=High Maintenance Woman - Toby Keith
TTITLE4=A Different World - Bucky Covington
TTITLE5=Simple Love - Alison Krauss
TTITLE6=Me and God - Josh Turner
TTITLE7=Nothin' Better To Do - LeAnn Rimes
TTITLE8=Watchin You - Rodney Atkins
TTITLE9=Dirty Girl - Terri Clark
TTITLE10=Ladies Love Country Boys - Trace Adkins
TTITLE11=Find Out Who Your Friends Are - Tracy Lawrence
TTITLE12=What I Did Last Night - Catherine Britt
TTITLE13=I Keep Coming Back - Josh Gracin
TTITLE14=Let's Try Goodbye - Amy Dalley
TTITLE15=Guys Like Me - Eric Church
EXTD=
EXTT0=
EXTT1=
EXTT2=
EXTT3=
EXTT4=
EXTT5=
EXTT6=
EXTT7=
EXTT8=
EXTT9=
EXTT10=
EXTT11=
EXTT12=
EXTT13=
EXTT14=
EXTT15=
PLAYORDER=
